<?xml version="1.0" encoding="utf-8"?>
<!-- Generator: Adobe Illustrator 19.2.1, SVG Export Plug-In . SVG Version: 6.00 Build 0)  -->
<svg version="1.2" baseProfile="tiny" id="Layer_1" xmlns="http://www.w3.org/2000/svg" xmlns:xlink="http://www.w3.org/1999/xlink"
	 x="0px" y="0px" viewBox="0 0 24 24" xml:space="preserve">
<g>
	<path d="M16.165,22c0-0.945-1.148-1.731-2.999-1.941v0.893h-2v-0.891C9.335,20.274,8.178,21.058,8.178,22c0,1.105,1.804,2,3.993,2
		C14.361,24,16.165,23.105,16.165,22z"/>
	<polygon points="13.167,20.953 13.167,20.059 13.167,10.997 11.167,10.998 11.167,20.062 11.167,20.953 	"/>
	<path d="M18,7.699V4.875c-1,0.729-3.417,1.129-6,1.129s-4-0.4-6-1.129v2.824c0,1.277,2.362,2.311,6,2.311
		C15.606,10.01,18,8.976,18,7.699z"/>
	<path d="M12.167,0c-3.289,0-6,0.896-6,2.002c0,1.106,2.346,2.002,6,2.002c3.622,0,6-0.896,6-2.002C18.167,0.896,15.456,0,12.167,0z
		"/>
</g>
</svg>
