<?xml version="1.0" encoding="utf-8"?>
<!-- Generator: Adobe Illustrator 19.2.1, SVG Export Plug-In . SVG Version: 6.00 Build 0)  -->
<svg version="1.2" baseProfile="tiny" id="Layer_1" xmlns="http://www.w3.org/2000/svg" xmlns:xlink="http://www.w3.org/1999/xlink"
	 x="0px" y="0px" viewBox="0 0 24 24" xml:space="preserve">
<g>
	<path fill="none" d="M17.915,11.634c0.051,0.152,0.084,0.307,0.084,0.465c0,1.601-2.686,2.899-5.999,2.899
		c-3.314,0-6-1.298-6-2.899c0-0.158,0.034-0.313,0.084-0.465C5.401,12.175,5,12.813,5,13.5c0,1.933,3.134,3.498,7,3.498
		s7-1.565,7-3.498C19,12.813,18.598,12.175,17.915,11.634z"/>
	<path d="M12,6C5.373,6,0,8.686,0,12s5.373,6,12,6s12-2.686,12-6S18.627,6,12,6z M12,16.998c-3.866,0-7-1.565-7-3.498
		c0-0.687,0.401-1.325,1.084-1.866C6.034,11.786,6,11.941,6,12.099c0,1.601,2.686,2.899,6,2.899c3.313,0,5.999-1.298,5.999-2.899
		c0-0.158-0.033-0.313-0.084-0.465C18.598,12.175,19,12.813,19,13.5C19,15.433,15.866,16.998,12,16.998z"/>
</g>
</svg>
